<mxfile host="app.diagrams.net" modified="2024-05-14T12:13:56.787Z" agent="Mozilla/5.0 (Windows NT 10.0; Win64; x64) AppleWebKit/537.36 (KHTML, like Gecko) Chrome/124.0.0.0 Safari/537.36" version="24.4.0" etag="Ymj90c-WYgAlG78gqbrZ" type="github">
  <diagram name="PÃ¡gina-1" id="BTaN8_3K8BvLWdNO00jc">
    <mxGraphModel>
      <root>
        <mxCell id="0" />
        <mxCell id="1" parent="0" />
      </root>
    </mxGraphModel>
  </diagram>
</mxfile>
